<svg xmlns="http://www.w3.org/2000/svg">
  <symbol id="arrow-double-left" fill="none">
    <path d="M25.4142 13.4142C26.1953 12.6332 26.1953 11.3668 25.4142 10.5858C24.6332 9.80474 23.3668 9.80474 22.5858 10.5858L10.5858 22.5858C9.82863 23.3429 9.80214 24.5621 10.5257 25.3514L21.5257 37.3514C22.2721 38.1657 23.5372 38.2207 24.3514 37.4743C25.1657 36.7279 25.2207 35.4628 24.4743 34.6486L14.7683 24.0602L25.4142 13.4142Z" fill="white"/>
    <path opacity="0.8" d="M39.4142 13.4142C40.1953 12.6332 40.1953 11.3668 39.4142 10.5858C38.6332 9.80474 37.3668 9.80474 36.5858 10.5858L24.5858 22.5858C23.8286 23.3429 23.8021 24.5621 24.5257 25.3514L35.5257 37.3514C36.2721 38.1657 37.5372 38.2207 38.3515 37.4743C39.1657 36.7279 39.2207 35.4628 38.4743 34.6486L28.7683 24.0602L39.4142 13.4142Z" fill="white"/>
  </symbol>

  <symbol id="arrow-double-right" fill="none">
    <path d="M22.5858 34.5858C21.8047 35.3668 21.8047 36.6332 22.5858 37.4142C23.3668 38.1953 24.6332 38.1953 25.4142 37.4142L37.4142 25.4142C38.1714 24.6571 38.1979 23.4379 37.4743 22.6486L26.4743 10.6486C25.7279 9.83431 24.4628 9.77931 23.6486 10.5257C22.8343 11.2721 22.7793 12.5372 23.5257 13.3514L33.2317 23.9398L22.5858 34.5858Z" fill="white"/>
    <path opacity="0.8" d="M8.58578 34.5858C7.80474 35.3668 7.80474 36.6332 8.58578 37.4142C9.36683 38.1953 10.6332 38.1953 11.4142 37.4142L23.4142 25.4142C24.1714 24.6571 24.1979 23.4379 23.4743 22.6486L12.4743 10.6486C11.7279 9.83431 10.4628 9.77931 9.64855 10.5257C8.83431 11.2721 8.7793 12.5372 9.52569 13.3514L19.2317 23.9398L8.58578 34.5858Z" fill="white"/>
  </symbol>

  <symbol id="arrow-double-up" fill="none">
    <path d="M43.2322 48.0178C44.2085 48.9941 45.7915 48.9941 46.7678 48.0178C47.7441 47.0415 47.7441 45.4585 46.7678 44.4822L31.7678 29.4822C30.8213 28.5358 29.2974 28.5027 28.3107 29.4071L13.3107 43.1571C12.2929 44.0901 12.2241 45.6715 13.1571 46.6893C14.0901 47.7071 15.6715 47.7759 16.6893 46.8429L29.9248 34.7103L43.2322 48.0178Z" fill="white" fill-opacity="0.7"/>
    <path d="M43.2322 30.5178C44.2085 31.4941 45.7915 31.4941 46.7678 30.5178C47.7441 29.5415 47.7441 27.9585 46.7678 26.9822L31.7678 11.9822C30.8213 11.0358 29.2974 11.0027 28.3107 11.9071L13.3107 25.6571C12.2929 26.5901 12.2241 28.1715 13.1571 29.1893C14.0901 30.2071 15.6715 30.2759 16.6893 29.3429L29.9248 17.2103L43.2322 30.5178Z" fill="white"/>
  </symbol>

  <symbol id="play" fill="none">
    <path fill-rule="evenodd" clip-rule="evenodd" d="M10 44.3702C10 44.7467 10.4004 44.9881 10.7333 44.8124L48.8508 24.7C49.2058 24.5127 49.2065 24.0044 48.852 23.8162L10.7345 3.57698C10.4015 3.40015 10 3.64153 10 4.01859L10 44.3702Z" fill="white"/>
  </symbol>

  <symbol id="plus" fill="none">
    <path d="M20.5846 14.0834H14.0846V20.5834H11.918V14.0834H5.41797V11.9167H11.918V5.41675H14.0846V11.9167H20.5846V14.0834Z" fill="white"/>
  </symbol>

  <symbol id="minus" fill="none">
    <path d="M20.5827 14.0834H5.41602V11.9167H20.5827V14.0834Z" fill="white"/>
  </symbol>

  <symbol id="toggle-arrow-top" fill="none">
    <path d="M11.5 0L22.3253 15H0.674683L11.5 0Z" fill="white"/>
  </symbol>

  <symbol id="toggle-arrow-bottom" fill="none">
    <path d="M11.5 15L0.674683 0L22.3253 0L11.5 15Z" fill="white"/>
  </symbol>

  <symbol id="chat">
    <mask id="path-1-outside-1_35_456" maskUnits="userSpaceOnUse" x="5" y="5" width="41" height="39" fill="black">
      <rect fill="white" x="5" y="5" width="41" height="39"/>
      <path fill-rule="evenodd" clip-rule="evenodd" d="M9 6C7.34315 6 6 7.34315 6 9V33C6 34.6569 7.34315 36 9 36H36.0499L42.3428 42.2929C42.9727 42.9229 44.0499 42.4767 44.0499 41.5858V30L44 30.0196V9C44 7.34315 42.6569 6 41 6H9Z"/>
    </mask>
    <path d="M36.0499 36L36.757 35.2929L36.4641 35H36.0499V36ZM44.0499 30H45.0499V28.5325L43.6841 29.0693L44.0499 30ZM44 30.0196H43V31.4871L44.3658 30.9503L44 30.0196ZM7 9C7 7.89543 7.89543 7 9 7V5C6.79086 5 5 6.79086 5 9H7ZM7 33V9H5V33H7ZM9 35C7.89543 35 7 34.1046 7 33H5C5 35.2091 6.79086 37 9 37V35ZM36.0499 35H9V37H36.0499V35ZM43.0499 41.5858L36.757 35.2929L35.3428 36.7071L41.6357 43L43.0499 41.5858ZM43.0499 41.5858L41.6357 43C42.8956 44.2599 45.0499 43.3676 45.0499 41.5858H43.0499ZM43.0499 30V41.5858H45.0499V30H43.0499ZM44.3658 30.9503L44.4157 30.9307L43.6841 29.0693L43.6342 29.0889L44.3658 30.9503ZM43 9V30.0196H45V9H43ZM41 7C42.1046 7 43 7.89543 43 9H45C45 6.79086 43.2091 5 41 5V7ZM9 7H41V5H9V7Z" fill="white" mask="url(#path-1-outside-1_35_456)"/>
    <path fill-rule="evenodd" clip-rule="evenodd" d="M15 24C13.3431 24 12 22.6569 12 21C12 19.3431 13.3431 18 15 18C16.6569 18 18 19.3431 18 21C18 22.6569 16.6569 24 15 24ZM25 24C23.3431 24 22 22.6569 22 21C22 19.3431 23.3431 18 25 18C26.6569 18 28 19.3431 28 21C28 22.6569 26.6569 24 25 24ZM35 24C33.3431 24 32 22.6569 32 21C32 19.3431 33.3431 18 35 18C36.6569 18 38 19.3431 38 21C38 22.6569 36.6569 24 35 24Z" fill="white"/>
  </symbol>

  <symbol id="microphone">
    <path fill-rule="evenodd" clip-rule="evenodd" d="M18.75 14.375C18.75 16.45 17.075 18.125 15 18.125C12.925 18.125 11.25 16.45 11.25 14.375V6.875C11.25 4.8 12.925 3.125 15 3.125C17.075 3.125 18.75 4.8 18.75 6.875V14.375ZM15 20.625C18.45 20.625 21.25 17.825 21.25 14.375H23.75C23.75 18.7875 20.4875 22.4125 16.25 23.025V26.875H13.75V23.025C9.5125 22.4125 6.25 18.7875 6.25 14.375H8.75C8.75 17.825 11.55 20.625 15 20.625Z" fill="#FF4545"/>
  </symbol>

  <symbol id="stop">
     <path fill="#FF4545" d="M5 0h15s5 0 5 5v15s0 5 -5 5h-15s-5 0 -5 -5v-15s0 -5 5 -5" />
  </symbol>
</svg>